<mxfile host="app.diagrams.net" modified="2023-10-01T16:54:10.147Z" agent="Mozilla/5.0 (Macintosh; Intel Mac OS X 10_15_7) AppleWebKit/537.36 (KHTML, like Gecko) Chrome/117.0.0.0 Safari/537.36" etag="gE6UMp1kzG54n1bA6epm" version="21.8.2" type="github">
  <diagram id="4_XCW6oBCm1cpU5HytLm" name="Page-1">
    <mxGraphModel dx="880" dy="510" grid="1" gridSize="6" guides="1" tooltips="1" connect="1" arrows="1" fold="1" page="1" pageScale="1" pageWidth="1600" pageHeight="900" math="0" shadow="0">
      <root>
        <mxCell id="0" />
        <mxCell id="1" parent="0" />
        <mxCell id="oHFv8ve8owYaf5rruyJd-1" value="&lt;b&gt;Data Soources&lt;/b&gt;" style="rounded=1;whiteSpace=wrap;html=1;fillColor=#dae8fc;strokeColor=#6c8ebf;verticalAlign=top;" vertex="1" parent="1">
          <mxGeometry x="48" y="144" width="120" height="432" as="geometry" />
        </mxCell>
        <mxCell id="oHFv8ve8owYaf5rruyJd-2" value="Data Ingestion" style="rounded=1;whiteSpace=wrap;html=1;fillColor=#dae8fc;strokeColor=#6c8ebf;verticalAlign=top;fontStyle=1" vertex="1" parent="1">
          <mxGeometry x="186" y="144" width="120" height="432" as="geometry" />
        </mxCell>
        <mxCell id="oHFv8ve8owYaf5rruyJd-3" value="Staging:&lt;br&gt;Raw Data" style="rounded=1;whiteSpace=wrap;html=1;fillColor=#dae8fc;strokeColor=#6c8ebf;verticalAlign=top;fontStyle=1" vertex="1" parent="1">
          <mxGeometry x="318" y="144" width="120" height="264" as="geometry" />
        </mxCell>
        <mxCell id="oHFv8ve8owYaf5rruyJd-4" value="Trusted: Standardized Zone" style="rounded=1;whiteSpace=wrap;html=1;fillColor=#dae8fc;strokeColor=#6c8ebf;verticalAlign=top;fontStyle=1" vertex="1" parent="1">
          <mxGeometry x="450" y="144" width="312" height="126" as="geometry" />
        </mxCell>
        <mxCell id="oHFv8ve8owYaf5rruyJd-5" value="Refined: Cleansing Zone" style="rounded=1;whiteSpace=wrap;html=1;fillColor=#dae8fc;strokeColor=#6c8ebf;verticalAlign=top;fontStyle=1" vertex="1" parent="1">
          <mxGeometry x="450" y="282" width="312" height="126" as="geometry" />
        </mxCell>
        <mxCell id="oHFv8ve8owYaf5rruyJd-6" value="Sandbox" style="rounded=1;whiteSpace=wrap;html=1;fillColor=#dae8fc;strokeColor=#6c8ebf;verticalAlign=top;fontStyle=1" vertex="1" parent="1">
          <mxGeometry x="324" y="420" width="438" height="90" as="geometry" />
        </mxCell>
        <mxCell id="oHFv8ve8owYaf5rruyJd-7" value="Data&lt;br&gt;Consumption" style="rounded=1;whiteSpace=wrap;html=1;fillColor=#dae8fc;strokeColor=#6c8ebf;verticalAlign=top;fontStyle=1" vertex="1" parent="1">
          <mxGeometry x="780" y="144" width="120" height="432" as="geometry" />
        </mxCell>
        <mxCell id="oHFv8ve8owYaf5rruyJd-8" value="Data Governance" style="rounded=1;whiteSpace=wrap;html=1;fillColor=#dae8fc;strokeColor=#6c8ebf;verticalAlign=middle;fontStyle=1" vertex="1" parent="1">
          <mxGeometry x="324" y="522" width="438" height="54" as="geometry" />
        </mxCell>
        <mxCell id="oHFv8ve8owYaf5rruyJd-10" value="Structured" style="rounded=0;whiteSpace=wrap;html=1;fontSize=9;fontStyle=1;verticalAlign=bottom;" vertex="1" parent="1">
          <mxGeometry x="60" y="198" width="96" height="84" as="geometry" />
        </mxCell>
        <mxCell id="oHFv8ve8owYaf5rruyJd-19" value="CRM" style="shape=image;html=1;verticalAlign=top;verticalLabelPosition=bottom;labelBackgroundColor=#ffffff;imageAspect=0;aspect=fixed;image=https://cdn4.iconfinder.com/data/icons/online-marketing-hand-drawn-vol-4/52/web__globe__data__technology__list__menu__webpage-128.png;fontSize=7;" vertex="1" parent="1">
          <mxGeometry x="72" y="236" width="18" height="18" as="geometry" />
        </mxCell>
        <mxCell id="oHFv8ve8owYaf5rruyJd-20" value="ERP" style="shape=image;html=1;verticalAlign=top;verticalLabelPosition=bottom;labelBackgroundColor=#ffffff;imageAspect=0;aspect=fixed;image=https://cdn4.iconfinder.com/data/icons/online-marketing-hand-drawn-vol-4/52/web__globe__data__technology__list__menu__webpage-128.png;fontSize=7;" vertex="1" parent="1">
          <mxGeometry x="99" y="236" width="18" height="18" as="geometry" />
        </mxCell>
        <mxCell id="oHFv8ve8owYaf5rruyJd-21" value="API" style="shape=image;html=1;verticalAlign=top;verticalLabelPosition=bottom;labelBackgroundColor=#ffffff;imageAspect=0;aspect=fixed;image=https://cdn4.iconfinder.com/data/icons/online-marketing-hand-drawn-vol-4/52/web__globe__data__technology__list__menu__webpage-128.png;fontSize=7;" vertex="1" parent="1">
          <mxGeometry x="126" y="236" width="18" height="18" as="geometry" />
        </mxCell>
        <mxCell id="oHFv8ve8owYaf5rruyJd-22" value="" style="group" vertex="1" connectable="0" parent="1">
          <mxGeometry x="66" y="202" width="84" height="30" as="geometry" />
        </mxCell>
        <mxCell id="oHFv8ve8owYaf5rruyJd-12" value="DWH,DM,&lt;br style=&quot;font-size: 5px;&quot;&gt;OLTP,ODS" style="rounded=0;whiteSpace=wrap;html=1;fontSize=5;fontStyle=1;align=right;verticalAlign=middle;dashed=1;strokeColor=#FFFFFF;" vertex="1" parent="oHFv8ve8owYaf5rruyJd-22">
          <mxGeometry width="84" height="30" as="geometry" />
        </mxCell>
        <mxCell id="oHFv8ve8owYaf5rruyJd-11" value="" style="image;aspect=fixed;perimeter=ellipsePerimeter;html=1;align=center;shadow=0;dashed=0;spacingTop=3;image=img/lib/active_directory/databases.svg;" vertex="1" parent="oHFv8ve8owYaf5rruyJd-22">
          <mxGeometry x="7" y="3" width="21.428749999999997" height="21" as="geometry" />
        </mxCell>
      </root>
    </mxGraphModel>
  </diagram>
</mxfile>
